<svg xmlns="http://www.w3.org/2000/svg" viewBox="0 0 400 280" fill="none" role="img" aria-labelledby="workflow-title workflow-desc" overflow="hidden">
  <title id="workflow-title">Document processing workflow</title>
  <desc id="workflow-desc">Upload → Vertex AI → Pre-validation → PostgreSQL</desc>
  <defs>
    <filter id="workflowShadow" x="-10%" y="-10%" width="120%" height="120%">
      <feDropShadow dx="0" dy="2" stdDeviation="2" flood-color="#000" flood-opacity="0.08"/>
    </filter>
    <marker id="arrowWorkflow" markerWidth="6" markerHeight="5" refX="5" refY="2.5" orient="auto">
      <polygon points="0 0, 6 2.5, 0 5" fill="#94a3b8"/>
    </marker>
    <!-- Cloud upload (MUI – full path you provided) -->
    <symbol id="iconCloudUpload" viewBox="0 0 24 24">
      <path fill="currentColor" d="M19.35 10.04C18.67 6.59 15.64 4 12 4 9.11 4 6.6 5.64 5.35 8.04 2.34 8.36 0 10.91 0 14c0 3.31 2.69 6 6 6h13c2.76 0 5-2.24 5-5 0-2.64-2.05-4.78-4.65-4.96M19 18H6c-2.21 0-4-1.79-4-4 0-2.05 1.53-3.76 3.56-3.97l1.07-.11.5-.95C8.08 7.14 9.94 6 12 6c2.62 0 4.88 1.86 5.39 4.43l.3 1.5 1.53.11c1.56.1 2.78 1.41 2.78 2.96 0 1.65-1.35 3-3 3M8 13h2.55v3h2.9v-3H16l-4-4z"/>
    </symbol>
    <!-- Vertex AI (Google Cloud) -->
    <symbol id="iconVertexAI" viewBox="0 0 24 24">
      <path d="M20,13.89A.77.77,0,0,0,19,13.73l-7,5.14v.22a.72.72,0,1,1,0,1.43v0a.74.74,0,0,0,.45-.15l7.41-5.47A.76.76,0,0,0,20,13.89Z" fill="#669df6"/>
      <path d="M12,20.52a.72.72,0,0,1,0-1.43h0v-.22L5,13.73a.76.76,0,0,0-1,.16.74.74,0,0,0,.16,1l7.41,5.47a.73.73,0,0,0,.44.15v0Z" fill="#aecbfa"/>
      <path d="M12,18.34a1.47,1.47,0,1,0,1.47,1.47A1.47,1.47,0,0,0,12,18.34Zm0,2.18a.72.72,0,1,1,.72-.71A.71.71,0,0,1,12,20.52Z" fill="#4285f4"/>
      <path d="M6,6.11a.76.76,0,0,1-.75-.75V3.48a.76.76,0,1,1,1.51,0V5.36A.76.76,0,0,1,6,6.11Z" fill="#aecbfa"/>
      <circle cx="5.98" cy="12" r="0.76" fill="#aecbfa"/><circle cx="5.98" cy="9.79" r="0.76" fill="#aecbfa"/><circle cx="5.98" cy="7.57" r="0.76" fill="#aecbfa"/>
      <path d="M18,8.31a.76.76,0,0,1-.75-.76V5.67a.75.75,0,1,1,1.5,0V7.55A.75.75,0,0,1,18,8.31Z" fill="#4285f4"/>
      <circle cx="18.02" cy="12.01" r="0.76" fill="#4285f4"/><circle cx="18.02" cy="9.76" r="0.76" fill="#4285f4"/><circle cx="18.02" cy="3.48" r="0.76" fill="#4285f4"/>
      <path d="M12,15a.76.76,0,0,1-.75-.75V12.34a.76.76,0,0,1,1.51,0v1.89A.76.76,0,0,1,12,15Z" fill="#669df6"/>
      <circle cx="12" cy="16.45" r="0.76" fill="#669df6"/><circle cx="12" cy="10.14" r="0.76" fill="#669df6"/><circle cx="12" cy="7.92" r="0.76" fill="#669df6"/>
      <path d="M15,10.54a.76.76,0,0,1-.75-.75V7.91a.76.76,0,1,1,1.51,0V9.79A.76.76,0,0,1,15,10.54Z" fill="#4285f4"/>
      <circle cx="15.01" cy="5.69" r="0.76" fill="#4285f4"/><circle cx="15.01" cy="14.19" r="0.76" fill="#4285f4"/><circle cx="15.01" cy="11.97" r="0.76" fill="#4285f4"/>
      <circle cx="8.99" cy="14.19" r="0.76" fill="#aecbfa"/><circle cx="8.99" cy="7.92" r="0.76" fill="#aecbfa"/><circle cx="8.99" cy="5.69" r="0.76" fill="#aecbfa"/>
      <path d="M9,12.73A.76.76,0,0,1,8.24,12V10.1a.75.75,0,1,1,1.5,0V12A.75.75,0,0,1,9,12.73Z" fill="#aecbfa"/>
    </symbol>
    <!-- Shield with check (MUI – validate) -->
    <symbol id="iconShieldCheck" viewBox="0 0 24 24">
      <path fill="currentColor" d="M12 1 3 5v6c0 5.55 3.84 10.74 9 12 5.16-1.26 9-6.45 9-12V5zm-2 16-4-4 1.41-1.41L10 14.17l6.59-6.59L18 9z"/>
    </symbol>
    <!-- PostgreSQL (original logo, viewBox 128) -->
    <symbol id="iconPostgreSQL" viewBox="0 0 128 128">
      <path fill="#336791" d="M115.731 77.44c-13.925 2.873-14.882-1.842-14.882-1.842 14.703-21.816 20.849-49.51 15.545-56.287-14.47-18.488-39.519-9.745-39.937-9.518l-.135.024c-2.751-.571-5.83-.911-9.291-.967-6.301-.103-11.08 1.652-14.707 4.402 0 0-44.684-18.408-42.606 23.151.442 8.842 12.672 66.899 27.26 49.363 5.332-6.412 10.483-11.834 10.483-11.834 2.559 1.699 5.622 2.567 8.833 2.255l.25-.212c-.078.796-.042 1.575.1 2.497-3.758 4.199-2.654 4.936-10.167 6.482-7.602 1.566-3.136 4.355-.22 5.084 3.534.884 11.712 2.136 17.237-5.598l-.221.882c1.473 1.18 2.507 7.672 2.334 13.557-.174 5.885-.29 9.926.871 13.082 1.16 3.156 2.316 10.256 12.192 8.14 8.252-1.768 12.528-6.351 13.124-13.995.422-5.435 1.377-4.631 1.438-9.49l.767-2.3c.884-7.367.14-9.743 5.225-8.638l1.235.108c3.742.17 8.639-.602 11.514-1.938 6.19-2.871 9.861-7.667 3.758-6.408z"/>
    </symbol>
  </defs>

  <!-- Background & header: 44px height, 4px gap to content. Content area 48–280. -->
  <rect width="400" height="280" rx="10" fill="#f8fafc"/>
  <rect x="0" y="0" width="400" height="44" rx="10" fill="white" filter="url(#workflowShadow)"/>
  <text x="24" y="22" dominant-baseline="middle" fill="#0f172a" font-size="12" font-weight="600" font-family="Inter, system-ui, -apple-system, sans-serif" letter-spacing="0.02em">Document processing workflow</text>
  <text x="24" y="36" dominant-baseline="middle" fill="#64748b" font-size="10" font-family="Inter, system-ui, sans-serif">Upload → Vertex AI → Pre-validation → PostgreSQL</text>

  <!-- Flow: 4px below header, cards centered in 48–280. Card y=124, arrow y=164. -->
  <!-- Card 1: Upload (x=32) -->
  <rect x="32" y="124" width="72" height="80" rx="8" fill="white" stroke="#e2e8f0" stroke-width="1" filter="url(#workflowShadow)"/>
  <rect x="44" y="136" width="48" height="36" rx="6" fill="#f1f5f9"/>
  <use href="#iconCloudUpload" x="52" y="140" width="32" height="32" fill="#94a3b8"/>
  <text x="68" y="196" text-anchor="middle" dominant-baseline="middle" fill="#64748b" font-size="10" font-weight="600" font-family="Inter, system-ui, sans-serif">Upload</text>

  <!-- Arrow 1 -->
  <path d="M104 164 L 120 164" stroke="#94a3b8" stroke-width="2" stroke-linecap="round" marker-end="url(#arrowWorkflow)"/>

  <!-- Card 2: Vertex AI (x=120) -->
  <rect x="120" y="124" width="72" height="80" rx="8" fill="white" stroke="#8b5cf6" stroke-width="2" filter="url(#workflowShadow)"/>
  <rect x="132" y="136" width="48" height="36" rx="6" fill="#ede9fe"/>
  <use href="#iconVertexAI" x="140" y="140" width="32" height="32"/>
  <text x="156" y="196" text-anchor="middle" dominant-baseline="middle" fill="#5b21b6" font-size="10" font-weight="600" font-family="Inter, system-ui, sans-serif">Vertex AI</text>

  <!-- Arrow 2 -->
  <path d="M192 164 L 208 164" stroke="#94a3b8" stroke-width="2" stroke-linecap="round" marker-end="url(#arrowWorkflow)"/>

  <!-- Card 3: Validate (x=208) -->
  <rect x="208" y="124" width="72" height="80" rx="8" fill="white" stroke="#22c55e" stroke-width="2" filter="url(#workflowShadow)"/>
  <rect x="220" y="136" width="48" height="36" rx="6" fill="#dcfce7"/>
  <use href="#iconShieldCheck" x="228" y="140" width="32" height="32" fill="#22c55e"/>
  <text x="244" y="196" text-anchor="middle" dominant-baseline="middle" fill="#15803d" font-size="10" font-weight="600" font-family="Inter, system-ui, sans-serif">Validate</text>

  <!-- Arrow 3 -->
  <path d="M280 164 L 296 164" stroke="#94a3b8" stroke-width="2" stroke-linecap="round" marker-end="url(#arrowWorkflow)"/>

  <!-- Card 4: PostgreSQL (x=296) -->
  <rect x="296" y="124" width="72" height="80" rx="8" fill="white" stroke="#0ea5e9" stroke-width="2" filter="url(#workflowShadow)"/>
  <rect x="308" y="136" width="48" height="36" rx="6" fill="#e0f2fe"/>
  <use href="#iconPostgreSQL" x="314" y="136" width="36" height="36"/>
  <text x="332" y="196" text-anchor="middle" dominant-baseline="middle" fill="#0284c7" font-size="10" font-weight="600" font-family="Inter, system-ui, sans-serif">PostgreSQL</text>
</svg>
