<svg xmlns="http://www.w3.org/2000/svg" viewBox="0 0 400 280" fill="none">
  <defs>
    <filter id="shadow4" x="-10%" y="-10%" width="120%" height="120%">
      <feDropShadow dx="0" dy="2" stdDeviation="3" flood-opacity="0.08"/>
    </filter>
  </defs>
  <rect width="400" height="280" rx="10" fill="#f1f5f9"/>
  <rect x="0" y="0" width="400" height="48" rx="10" fill="white" filter="url(#shadow4)"/>
  <text x="24" y="32" fill="#1e293b" font-size="14" font-weight="600" font-family="system-ui, sans-serif">Poll Results · Real-time</text>
  <!-- Bar chart card -->
  <rect x="24" y="60" width="352" height="152" rx="8" fill="white" filter="url(#shadow4)"/>
  <text x="40" y="88" fill="#1e293b" font-size="12" font-weight="600" font-family="system-ui, sans-serif">Which feature should we prioritize?</text>
  <text x="40" y="106" fill="#64748b" font-size="10" font-family="system-ui, sans-serif">128 votes · Closes in 2 days</text>
  <text x="40" y="124" fill="#64748b" font-size="10" font-family="system-ui, sans-serif">Option A</text>
  <rect x="100" y="116" width="176" height="14" rx="4" fill="#2563eb"/>
  <text x="284" y="123" dominant-baseline="middle" fill="#1e293b" font-size="10" font-weight="600" font-family="system-ui, sans-serif">52 (41%)</text>
  <text x="40" y="150" fill="#64748b" font-size="10" font-family="system-ui, sans-serif">Option B</text>
  <rect x="100" y="142" width="112" height="14" rx="4" fill="#3b82f6" opacity="0.85"/>
  <text x="220" y="149" dominant-baseline="middle" fill="#1e293b" font-size="10" font-weight="600" font-family="system-ui, sans-serif">32 (25%)</text>
  <text x="40" y="176" fill="#64748b" font-size="10" font-family="system-ui, sans-serif">Option C</text>
  <rect x="100" y="168" width="84" height="14" rx="4" fill="#60a5fa" opacity="0.75"/>
  <text x="192" y="175" dominant-baseline="middle" fill="#1e293b" font-size="10" font-weight="600" font-family="system-ui, sans-serif">24 (19%)</text>
  <text x="40" y="202" fill="#64748b" font-size="10" font-family="system-ui, sans-serif">Option D</text>
  <rect x="100" y="194" width="56" height="14" rx="4" fill="#93c5fd" opacity="0.65"/>
  <text x="164" y="201" dominant-baseline="middle" fill="#1e293b" font-size="10" font-weight="600" font-family="system-ui, sans-serif">20 (15%)</text>
  <!-- Distribution pie chart card (r=20, circumference ≈ 125.66; 41%, 25%, 19%, 15%) -->
  <rect x="24" y="220" width="352" height="52" rx="8" fill="white" filter="url(#shadow4)"/>
  <text x="40" y="248" fill="#1e293b" font-size="11" font-weight="600" font-family="system-ui, sans-serif">Distribution</text>
  <circle cx="320" cy="246" r="20" fill="none" stroke="#e2e8f0" stroke-width="6"/>
  <circle cx="320" cy="246" r="20" fill="none" stroke="#2563eb" stroke-width="6" stroke-dasharray="51.5 74.2" stroke-dashoffset="0" transform="rotate(-90 320 246)"/>
  <circle cx="320" cy="246" r="20" fill="none" stroke="#3b82f6" stroke-width="6" stroke-dasharray="31.4 94.3" stroke-dashoffset="-51.5" transform="rotate(-90 320 246)"/>
  <circle cx="320" cy="246" r="20" fill="none" stroke="#60a5fa" stroke-width="6" stroke-dasharray="23.9 101.8" stroke-dashoffset="-82.9" transform="rotate(-90 320 246)"/>
  <circle cx="320" cy="246" r="20" fill="none" stroke="#93c5fd" stroke-width="6" stroke-dasharray="18.8 106.9" stroke-dashoffset="-106.8" transform="rotate(-90 320 246)"/>
  <text x="320" y="246" text-anchor="middle" dominant-baseline="middle" fill="#64748b" font-size="8" font-family="system-ui, sans-serif">100%</text>
</svg>