<svg xmlns="http://www.w3.org/2000/svg" viewBox="0 0 400 280" fill="none" role="img" aria-labelledby="content-ingest-title content-ingest-desc">
  <title id="content-ingest-title">Content ingestion</title>
  <desc id="content-ingest-desc">Content ingestion pipeline: Instagram Stories → Phyllo → NestJS → DB. Ingestion status table with platform, last sync, status.</desc>
  <defs>
    <filter id="jshadowIngest" x="-10%" y="-10%" width="120%" height="120%">
      <feDropShadow dx="0" dy="2" stdDeviation="2" flood-color="#000" flood-opacity="0.08"/>
    </filter>
    <marker id="arrowIngest" markerWidth="6" markerHeight="5" refX="5" refY="2.5" orient="auto">
      <polygon points="0 0, 6 2.5, 0 5" fill="#94a3b8"/>
    </marker>
    <symbol id="iconInstagram" viewBox="0 0 16 16">
      <path fill="currentColor" d="M8 0C5.829 0 5.556.01 4.703.048 3.85.088 3.269.222 2.76.42a3.9 3.9 0 0 0-1.417.923A3.9 3.9 0 0 0 .42 2.76C.222 3.268.087 3.85.048 4.7.01 5.555 0 5.827 0 8.001c0 2.172.01 2.444.048 3.297.04.852.174 1.433.372 1.942.205.526.478.972.923 1.417.444.445.89.719 1.416.923.51.198 1.09.333 1.942.372C5.555 15.99 5.827 16 8 16s2.444-.01 3.298-.048c.851-.04 1.434-.174 1.943-.372a3.9 3.9 0 0 0 1.416-.923c.445-.445.718-.891.923-1.417.197-.509.332-1.09.372-1.942C15.99 10.445 16 10.173 16 8s-.01-2.445-.048-3.299c-.04-.851-.175-1.433-.372-1.941a3.9 3.9 0 0 0-.923-1.417A3.9 3.9 0 0 0 13.24.42c-.51-.198-1.092-.333-1.943-.372C10.443.01 10.172 0 7.998 0zm-.717 1.442h.718c2.136 0 2.389.007 3.232.046.78.035 1.204.166 1.486.275.373.145.64.319.92.599s.453.546.598.92c.11.281.24.705.275 1.485.039.843.047 1.096.047 3.231s-.008 2.389-.047 3.232c-.035.78-.166 1.203-.275 1.485a2.5 2.5 0 0 1-.599.919c-.28.28-.546.453-.92.598-.28.11-.704.24-1.485.276-.843.038-1.096.047-3.232.047s-2.39-.009-3.233-.047c-.78-.036-1.203-.166-1.485-.276a2.5 2.5 0 0 1-.92-.598 2.5 2.5 0 0 1-.6-.92c-.109-.281-.24-.705-.275-1.485-.038-.843-.046-1.096-.046-3.233s.008-2.388.046-3.231c.036-.78.166-1.204.276-1.486.145-.373.319-.64.599-.92s.546-.453.92-.598c.282-.11.705-.24 1.485-.276.738-.034 1.024-.044 2.515-.045zm4.988 1.328a.96.96 0 1 0 0 1.92.96.96 0 0 0 0-1.92m-4.27 1.122a4.109 4.109 0 1 0 0 8.217 4.109 4.109 0 0 0 0-8.217m0 1.441a2.667 2.667 0 1 1 0 5.334 2.667 2.667 0 0 1 0-5.334"/>
    </symbol>
    <symbol id="iconNestJS" viewBox="0 0 128 128">
      <path fill="#E0234E" d="M75.4,0.3c-0.9,0-1.8,0.2-2.6,0.5c1.7,1.1,2.6,2.6,3.1,4.3c0,0.2,0.1,0.4,0.1,0.6c0,0.2,0.1,0.4,0.1,0.6   c0.1,2.9-0.8,3.3-1.4,5c-1,2.2-0.7,4.6,0.5,6.5c0.1,0.2,0.2,0.5,0.4,0.7c-1.3-8.4,5.7-9.6,7-12.2c0.1-2.3-1.8-3.8-3.3-4.9   C77.8,0.5,76.6,0.3,75.4,0.3L75.4,0.3z M85.9,2.1c-0.1,0.8,0,0.6-0.1,1c0,0.3,0,0.6-0.1,0.9c-0.1,0.3-0.1,0.5-0.2,0.8   c-0.1,0.3-0.2,0.5-0.3,0.8C85.1,5.8,85,6,84.9,6.3c-0.1,0.1-0.2,0.3-0.3,0.4c-0.1,0.1-0.2,0.2-0.2,0.3c-0.2,0.2-0.3,0.5-0.5,0.7   c-0.2,0.2-0.4,0.4-0.6,0.6v0c-0.2,0.2-0.4,0.4-0.6,0.5c-0.7,0.5-1.5,0.9-2.2,1.4c-0.2,0.2-0.5,0.3-0.7,0.5   c-0.2,0.2-0.4,0.3-0.6,0.5c-0.2,0.2-0.4,0.4-0.6,0.6c-0.2,0.2-0.4,0.4-0.5,0.7c-0.2,0.2-0.3,0.5-0.5,0.7c-0.1,0.3-0.2,0.5-0.4,0.8   c-0.1,0.3-0.2,0.5-0.3,0.8c-0.1,0.3-0.2,0.6-0.2,0.8c0,0.1,0,0.3-0.1,0.4c0,0.1,0,0.3-0.1,0.4c0,0.3,0,0.6,0,0.8c0,0.2,0,0.4,0,0.6   c0,0.3,0,0.5,0.1,0.8c0,0.3,0.1,0.5,0.2,0.8c0.1,0.3,0.2,0.5,0.3,0.8c0.1,0.2,0.2,0.3,0.2,0.5l-7.6-2.9c-1.3-0.4-2.5-0.7-3.8-1   c-0.7-0.2-1.4-0.3-2.1-0.5c-2-0.4-4-0.7-6-0.9c-0.1,0-0.1,0-0.2,0c-2-0.2-3.9-0.3-5.9-0.3c-1.5,0-2.9,0.1-4.3,0.2   c-2,0.1-4,0.4-6,0.7c-0.5,0.1-1,0.2-1.5,0.3c-1,0.2-2,0.4-3,0.7c-0.5,0.1-1,0.3-1.5,0.4c-0.5,0.2-1,0.4-1.4,0.6   c-0.4,0.2-0.7,0.3-1.1,0.5c-0.1,0-0.1,0-0.2,0.1c-0.3,0.2-0.6,0.3-0.9,0.5c-0.1,0-0.2,0.1-0.2,0.1c-0.4,0.2-0.7,0.4-1,0.5   c-0.2,0.1-0.5,0.2-0.7,0.3c-0.1,0.1-0.2,0.1-0.3,0.2c-0.3,0.2-0.6,0.3-0.9,0.5c-0.3,0.2-0.6,0.3-0.8,0.5c-0.2,0.2-0.5,0.3-0.7,0.5   c0,0-0.1,0-0.1,0.1c-0.2,0.1-0.4,0.3-0.6,0.5c0,0,0,0-0.1,0.1c-0.2,0.1-0.3,0.3-0.5,0.4c-0.1,0-0.1,0.1-0.2,0.1   c-0.2,0.1-0.3,0.3-0.5,0.4c0,0.1-0.1,0.1-0.1,0.1c-0.2,0.2-0.4,0.4-0.6,0.6c0,0,0,0-0.1,0.1c-0.2,0.2-0.4,0.4-0.6,0.6   c0,0,0,0.1-0.1,0.1c-0.2,0.2-0.3,0.3-0.5,0.5c-0.1,0.1-0.2,0.1-0.2,0.2c-0.2,0.2-0.4,0.4-0.6,0.6c0,0.1-0.1,0.1-0.1,0.2   c-0.3,0.3-0.5,0.5-0.8,0.8c0,0-0.1,0.1-0.1,0.1c-0.5,0.6-1.1,1.1-1.7,1.6c-0.6,0.5-1.2,1-1.9,1.5c-0.7,0.5-1.3,0.9-2,1.3   c-0.7,0.4-1.4,0.7-2.1,1c-0.7,0.3-1.4,0.6-2.1,0.8c-1.4,0.3-2.8,0.9-4,1C7.6,33.9,7.3,34,7,34c-0.3,0.1-0.6,0.1-0.8,0.2   c-0.3,0.1-0.5,0.2-0.8,0.3c-0.3,0.1-0.5,0.2-0.8,0.4c-0.2,0.2-0.5,0.3-0.7,0.5c-0.2,0.2-0.5,0.4-0.7,0.6c-0.2,0.2-0.5,0.4-0.7,0.6   c-0.2,0.2-0.4,0.4-0.6,0.7c-0.2,0.3-0.4,0.5-0.5,0.8c-0.2,0.2-0.3,0.5-0.5,0.8c-0.1,0.3-0.3,0.6-0.4,0.9c-0.1,0.3-0.2,0.6-0.3,0.9   c-0.1,0.3-0.1,0.5-0.2,0.8c0,0,0,0.1,0,0.1c-0.1,0.3-0.1,0.7-0.1,0.9C0,42.4,0,42.6,0,42.8c0,0.1,0,0.3,0,0.4   c0,0.2,0.1,0.4,0.1,0.6c0.1,0.2,0.1,0.4,0.2,0.6v0c0.1,0.2,0.2,0.4,0.4,0.6c0.1,0.2,0.3,0.4,0.4,0.6c0.2,0.2,0.4,0.4,0.6,0.5   c0.2,0.2,0.4,0.4,0.6,0.5c0.8,0.7,1,0.9,2,1.5c0.2,0.1,0.3,0.2,0.5,0.3c0,0,0.1,0,0.1,0c0,0.1,0,0.1,0,0.2c0,0.3,0.1,0.5,0.2,0.8   c0.1,0.3,0.2,0.6,0.3,0.8c0.1,0.2,0.2,0.4,0.3,0.6c0,0.1,0.1,0.1,0.1,0.2c0.1,0.3,0.3,0.5,0.4,0.7c0.2,0.2,0.3,0.5,0.5,0.7   c0.2,0.2,0.4,0.4,0.6,0.6c0.2,0.2,0.4,0.4,0.6,0.6c0,0,0,0,0.1,0c0.2,0.2,0.4,0.3,0.6,0.5c0.2,0.2,0.5,0.3,0.7,0.4   c0.2,0.1,0.5,0.3,0.8,0.4c0.2,0.1,0.4,0.2,0.7,0.2c0,0,0.1,0,0.1,0.1c0.1,0,0.3,0.1,0.4,0.1c-0.1,1.8-0.1,3.5,0.1,4.1   c0.3,0.7,1.8-1.4,3.2-3.7c-0.2,2.3-0.3,5,0,5.8c0.4,0.8,2.3-1.8,4.1-4.6c23.4-5.4,44.8,10.8,47.1,33.7C65.4,87,61,85,58.9,85.5   c-1,2.4-2.7,5.6-5.4,7.5c0.2-2.2,0.1-4.4-0.3-6.6c-0.7,3-2.1,5.9-4.1,8.3c-3.1,0.2-6.3-1.3-7.9-3.6c-0.1-0.1-0.2-0.3-0.3-0.4   c-0.1-0.2-0.2-0.5-0.3-0.7c-0.1-0.2-0.2-0.5-0.2-0.7c0-0.2,0-0.5,0-0.7c0-0.2,0-0.3,0-0.5c0-0.2,0.1-0.5,0.2-0.7   c0.1-0.2,0.1-0.5,0.2-0.7c0.1-0.2,0.2-0.5,0.4-0.7c0.6-1.6,0.6-2.9-0.5-3.6c-0.2-0.1-0.4-0.2-0.6-0.3c-0.1,0-0.3-0.1-0.4-0.1   c-0.1,0-0.2-0.1-0.3-0.1c-0.2-0.1-0.5-0.1-0.7-0.2c-0.2-0.1-0.5-0.1-0.7-0.1c-0.2,0-0.5-0.1-0.7-0.1c-0.2,0-0.3,0-0.5,0   c-0.3,0-0.5,0-0.7,0.1c-0.2,0-0.5,0.1-0.7,0.1c-0.2,0.1-0.5,0.1-0.7,0.2c-0.2,0.1-0.5,0.1-0.7,0.3c-0.2,0.1-0.4,0.2-0.6,0.3   c-7.7,5-3.1,16.8,2.1,20.2c-2,0.4-4,0.8-4.6,1.2c0,0-0.1,0.1-0.1,0.1c1.4,0.9,2.9,1.6,4.5,2.2c2.1,0.7,4.4,1.3,5.4,1.6v0   c2.7,0.6,5.5,0.8,8.3,0.6c14.6-1,26.6-12.2,28.8-26.8c0.1,0.3,0.1,0.6,0.2,0.9c0.1,0.6,0.2,1.2,0.3,1.9v0c0.1,0.3,0.1,0.6,0.1,0.9   v0.1c0,0.3,0.1,0.6,0.1,0.9c0,0.4,0.1,0.7,0.1,1.1v0.5c0,0.2,0,0.4,0,0.5c0,0.2,0,0.4,0,0.6v0.5c0,0.2,0,0.4,0,0.7   c0,0.1,0,0.3,0,0.4c0,0.2,0,0.5,0,0.7c0,0.1,0,0.2,0,0.3c0,0.3-0.1,0.5-0.1,0.8c0,0.1,0,0.2,0,0.3c0,0.3-0.1,0.6-0.1,1v0v0   c-0.1,0.3-0.1,0.6-0.2,0.9v0.1c-0.1,0.3-0.1,0.6-0.2,0.9c0,0,0,0.1,0,0.1c-0.1,0.3-0.1,0.6-0.2,0.9v0.1c-0.1,0.3-0.2,0.6-0.3,0.9   c0,0,0,0.1,0,0.1c-0.1,0.3-0.2,0.7-0.3,1c-0.1,0.3-0.2,0.6-0.4,1c-0.1,0.3-0.2,0.7-0.4,1c-0.1,0.3-0.3,0.6-0.4,1h0   c-0.1,0.3-0.3,0.6-0.4,0.9c0,0.1-0.1,0.2-0.1,0.2c0,0,0,0.1-0.1,0.1c-2.1,4.3-5.3,8.1-9.3,11.1c-0.3,0.2-0.5,0.4-0.8,0.6   c-0.1,0.1-0.2,0.1-0.2,0.2c-0.2,0.2-0.5,0.3-0.7,0.5l0.1,0.2h0c0.5-0.1,0.9-0.1,1.4-0.2h0c0.9-0.1,1.7-0.3,2.6-0.5   c0.2,0,0.5-0.1,0.7-0.2c0.2,0,0.3-0.1,0.5-0.1c0.2,0,0.5-0.1,0.7-0.1c0.2-0.1,0.4-0.1,0.6-0.2c3.3-0.8,6.5-1.9,9.6-3.2   c-5.3,7.2-12.3,13-20.5,16.8c3.8-0.3,7.6-0.9,11.3-2c13.3-3.9,24.5-12.9,31.2-25c-1.4,7.6-4.4,14.9-8.9,21.3   c3.2-2.1,6.1-4.6,8.8-7.3c7.4-7.7,12.3-17.6,13.9-28.1c1.1,5.2,1.5,10.6,1,15.9c23.9-33.3,2-67.8-7.2-76.9c0-0.1-0.1-0.1-0.1-0.2   c0,0,0,0,0,0.1c0,0,0,0,0-0.1c0,0.4,0,0.8-0.1,1.2c-0.1,0.8-0.2,1.5-0.3,2.2c-0.2,0.7-0.4,1.5-0.6,2.2c-0.2,0.7-0.5,1.4-0.8,2.1   c-0.3,0.7-0.6,1.4-1,2c-0.4,0.6-0.8,1.3-1.2,1.9c-0.4,0.6-0.9,1.2-1.4,1.8c-0.5,0.6-1,1.1-1.6,1.7c-0.3,0.3-0.6,0.6-1,0.8   c-0.3,0.2-0.5,0.4-0.8,0.7c-0.6,0.5-1.2,0.9-1.9,1.3c-0.6,0.4-1.3,0.8-2,1.1c-0.7,0.3-1.4,0.6-2.1,0.9c-0.7,0.3-1.4,0.5-2.1,0.7   c-0.7,0.2-1.5,0.4-2.2,0.5c-0.8,0.1-1.5,0.2-2.2,0.3c-0.5,0-1.1,0.1-1.6,0.1c-0.8,0-1.5-0.1-2.2-0.1c-0.8-0.1-1.5-0.2-2.2-0.3   c-0.8-0.1-1.5-0.3-2.2-0.6h0c0.7-0.1,1.5-0.1,2.2-0.3c0.8-0.1,1.5-0.3,2.2-0.5c0.7-0.2,1.5-0.4,2.1-0.7c0.7-0.3,1.4-0.6,2.1-0.9   c0.7-0.3,1.3-0.7,2-1.1c0.6-0.4,1.3-0.9,1.9-1.3c0.6-0.5,1.2-1,1.7-1.5c0.6-0.5,1.1-1.1,1.6-1.6c0.5-0.6,1-1.2,1.4-1.8   c0.1-0.1,0.1-0.2,0.2-0.3c0.3-0.5,0.7-1.1,1-1.6c0.4-0.7,0.7-1.3,1-2c0.3-0.7,0.6-1.4,0.8-2.1c0.2-0.7,0.4-1.4,0.6-2.1   c0.1-0.8,0.3-1.5,0.3-2.2c0.1-0.8,0.1-1.5,0.1-2.2c0-0.5,0-1.1-0.1-1.6c-0.1-0.8-0.2-1.5-0.3-2.2c-0.1-0.8-0.3-1.5-0.5-2.2   c-0.2-0.7-0.5-1.4-0.7-2.1c-0.3-0.7-0.6-1.4-0.9-2c-0.4-0.7-0.7-1.3-1.1-2c-0.4-0.6-0.9-1.2-1.3-1.8c-0.5-0.6-1-1.1-1.5-1.7   c-0.3-0.3-0.6-0.6-0.9-0.8c-1.5-1.2-3-2.2-4.6-3.2c-0.2-0.1-0.4-0.2-0.7-0.3C87.9,2.8,86.9,2.5,85.9,2.1L85.9,2.1z"/>
    </symbol>
    <symbol id="iconPostgres" viewBox="0 0 128 128">
      <path d="M93.809 92.112c.785-6.533.55-7.492 5.416-6.433l1.235.108c3.742.17 8.637-.602 11.513-1.938 6.191-2.873 9.861-7.668 3.758-6.409-13.924 2.873-14.881-1.842-14.881-1.842 14.703-21.815 20.849-49.508 15.543-56.287-14.47-18.489-39.517-9.746-39.936-9.52l-.134.025c-2.751-.571-5.83-.912-9.289-.968-6.301-.104-11.082 1.652-14.709 4.402 0 0-44.683-18.409-42.604 23.151.442 8.841 12.672 66.898 27.26 49.362 5.332-6.412 10.484-11.834 10.484-11.834 2.558 1.699 5.622 2.567 8.834 2.255l.249-.212c-.078.796-.044 1.575.099 2.497-3.757 4.199-2.653 4.936-10.166 6.482-7.602 1.566-3.136 4.355-.221 5.084 3.535.884 11.712 2.136 17.238-5.598l-.22.882c1.474 1.18 1.375 8.477 1.583 13.69.209 5.214.558 10.079 1.621 12.948 1.063 2.868 2.317 10.256 12.191 8.14 8.252-1.764 14.561-4.309 15.136-27.985"/><path fill="#336791" d="M115.731 77.44c-13.925 2.873-14.882-1.842-14.882-1.842 14.703-21.816 20.849-49.51 15.545-56.287-14.47-18.488-39.519-9.745-39.937-9.518l-.135.024c-2.751-.571-5.83-.911-9.291-.967-6.301-.103-11.08 1.652-14.707 4.402 0 0-44.684-18.408-42.606 23.151.442 8.842 12.672 66.899 27.26 49.363 5.332-6.412 10.483-11.834 10.483-11.834 2.559 1.699 5.622 2.567 8.833 2.255l.25-.212c-.078.796-.042 1.575.1 2.497-3.758 4.199-2.654 4.936-10.167 6.482-7.602 1.566-3.136 4.355-.22 5.084 3.534.884 11.712 2.136 17.237-5.598l-.221.882c1.473 1.18 2.507 7.672 2.334 13.557-.174 5.885-.29 9.926.871 13.082 1.16 3.156 2.316 10.256 12.192 8.14 8.252-1.768 12.528-6.351 13.124-13.995.422-5.435 1.377-4.631 1.438-9.49l.767-2.3c.884-7.367.14-9.743 5.225-8.638l1.235.108c3.742.17 8.639-.602 11.514-1.938 6.19-2.871 9.861-7.667 3.758-6.408z"/>
    </symbol>
    <symbol id="iconPhyllo" viewBox="0 0 24 24">
      <path fill="none" stroke="#1e40af" stroke-width="2" stroke-linecap="round" stroke-linejoin="round" d="M7 4v16h4a4 4 0 0 0 0-8H7V4zM7 12h3a2 2 0 1 1 0 4H7v-4z"/>
    </symbol>
  </defs>
  <rect width="400" height="280" rx="10" fill="#f8fafc"/>
  <!-- Header: 44px, 16px padding -->
  <rect x="0" y="0" width="400" height="44" rx="10" fill="white" filter="url(#jshadowIngest)"/>
  <text x="24" y="22" dominant-baseline="middle" fill="#0f172a" font-size="12" font-weight="600" font-family="Inter, system-ui, -apple-system, sans-serif" letter-spacing="0.02em">Content ingestion</text>
  <text x="24" y="64" dominant-baseline="middle" fill="#64748b" font-size="9" font-family="Inter, system-ui, sans-serif">Instagram Stories · Phyllo · CRON workflows</text>
  <!-- Pipeline: 24px margin; 4 stages 52×52, 10px gap, arrows; content 40–352 -->
  <rect x="40" y="80" width="52" height="52" rx="8" fill="white" stroke="#e2e8f0" stroke-width="1" filter="url(#jshadowIngest)"/>
  <use href="#iconInstagram" x="52" y="92" width="28" height="28" fill="#E4405F"/>
  <text x="66" y="138" text-anchor="middle" dominant-baseline="middle" fill="#64748b" font-size="8" font-weight="600" font-family="Inter, system-ui, sans-serif">Instagram</text>
  <path d="M92 106 L112 106" stroke="#94a3b8" stroke-width="1.5" marker-end="url(#arrowIngest)"/>
  <rect x="112" y="80" width="52" height="52" rx="8" fill="white" stroke="#3b82f6" stroke-width="1.5" filter="url(#jshadowIngest)"/>
  <use href="#iconPhyllo" x="124" y="92" width="28" height="28"/>
  <text x="138" y="138" text-anchor="middle" dominant-baseline="middle" fill="#1e40af" font-size="8" font-weight="600" font-family="Inter, system-ui, sans-serif">Phyllo</text>
  <path d="M164 106 L184 106" stroke="#94a3b8" stroke-width="1.5" marker-end="url(#arrowIngest)"/>
  <rect x="184" y="80" width="52" height="52" rx="8" fill="white" stroke="#8b5cf6" stroke-width="1.5" filter="url(#jshadowIngest)"/>
  <use href="#iconNestJS" x="196" y="92" width="28" height="28"/>
  <text x="210" y="138" text-anchor="middle" dominant-baseline="middle" fill="#5b21b6" font-size="8" font-weight="600" font-family="Inter, system-ui, sans-serif">NestJS</text>
  <path d="M236 106 L256 106" stroke="#94a3b8" stroke-width="1.5" marker-end="url(#arrowIngest)"/>
  <rect x="256" y="80" width="52" height="52" rx="8" fill="white" stroke="#22c55e" stroke-width="1.5" filter="url(#jshadowIngest)"/>
  <use href="#iconPostgres" x="268" y="92" width="28" height="28"/>
  <text x="282" y="138" text-anchor="middle" dominant-baseline="middle" fill="#15803d" font-size="8" font-weight="600" font-family="Inter, system-ui, sans-serif">DB</text>
  <!-- Status table: 12px below pipeline; 40,156 312×96 (ends 352); 16px cell padding -->
  <rect x="40" y="156" width="312" height="96" rx="8" fill="white" filter="url(#jshadowIngest)" stroke="#e2e8f0" stroke-width="1"/>
  <text x="56" y="174" dominant-baseline="middle" fill="#1e293b" font-size="10" font-weight="600" font-family="Inter, system-ui, sans-serif">Ingestion status</text>
  <rect x="56" y="182" width="280" height="24" rx="4" fill="#1e293b"/>
  <text x="72" y="194" dominant-baseline="middle" fill="#94a3b8" font-size="9" font-weight="600" font-family="Inter, system-ui, sans-serif">Platform</text>
  <text x="156" y="194" dominant-baseline="middle" fill="#94a3b8" font-size="9" font-weight="600" font-family="Inter, system-ui, sans-serif">Last sync</text>
  <text x="248" y="194" dominant-baseline="middle" fill="#94a3b8" font-size="9" font-weight="600" font-family="Inter, system-ui, sans-serif">Status</text>
  <rect x="56" y="212" width="280" height="26" rx="4" fill="#f8fafc" stroke="#e2e8f0" stroke-width="1"/>
  <text x="72" y="225" dominant-baseline="middle" fill="#1e293b" font-size="9" font-family="Inter, system-ui, sans-serif">Instagram Stories</text>
  <text x="156" y="225" dominant-baseline="middle" fill="#64748b" font-size="9" font-family="Inter, system-ui, sans-serif">2 min ago</text>
  <rect x="248" y="218" width="48" height="14" rx="4" fill="#dcfce7"/>
  <text x="272" y="225" text-anchor="middle" dominant-baseline="middle" fill="#15803d" font-size="8" font-weight="500" font-family="Inter, system-ui, sans-serif">Synced</text>
</svg>
